<svg xmlns="http://www.w3.org/2000/svg" xmlns:xlink="http://www.w3.org/1999/xlink" viewBox="0,0,256,256" width="480px" height="480px" fill-rule="nonzero"><g fill-opacity="0" fill="#dddddd" fill-rule="nonzero" stroke="none" stroke-width="1" stroke-linecap="butt" stroke-linejoin="miter" stroke-miterlimit="10" stroke-dasharray="" stroke-dashoffset="0" font-family="none" font-weight="none" font-size="none" text-anchor="none" style="mix-blend-mode: normal"><path d="M0,256v-256h256v256z" id="bgRectangle"></path></g><g fill="#f4511e" fill-rule="nonzero" stroke="none" stroke-width="1" stroke-linecap="butt" stroke-linejoin="miter" stroke-miterlimit="10" stroke-dasharray="" stroke-dashoffset="0" font-family="none" font-weight="none" font-size="none" text-anchor="none" style="mix-blend-mode: normal"><g transform="scale(5.33333,5.33333)"><path d="M42.2,22.1l-16.3,-16.3c-0.5,-0.5 -1.2,-0.8 -1.9,-0.8v0c-0.7,0 -1.4,0.3 -1.9,0.8l-3.5,3.5l4.1,4.1c0.4,-0.2 0.8,-0.3 1.3,-0.3c1.7,0 3,1.3 3,3c0,0.5 -0.1,0.9 -0.3,1.3l4,4c0.4,-0.2 0.8,-0.3 1.3,-0.3c1.7,0 3,1.3 3,3c0,1.7 -1.3,3 -3,3c-1.7,0 -3,-1.3 -3,-3c0,-0.5 0.1,-0.9 0.3,-1.3l-4,-4c-0.1,0 -0.2,0.1 -0.3,0.1v10.4c1.2,0.4 2,1.5 2,2.8c0,1.7 -1.3,3 -3,3c-1.7,0 -3,-1.3 -3,-3c0,-1.3 0.8,-2.4 2,-2.8v-10.5c-1.2,-0.4 -2,-1.5 -2,-2.8c0,-0.5 0.1,-0.9 0.3,-1.3l-4.1,-4.1l-11.4,11.5c-0.5,0.5 -0.8,1.2 -0.8,1.9c0,0.7 0.3,1.4 0.8,1.9l16.3,16.3v0c0.5,0.5 1.2,0.8 1.9,0.8c0.7,0 1.4,-0.3 1.9,-0.8l16.3,-16.3c0.5,-0.5 0.8,-1.2 0.8,-1.9c0,-0.7 -0.3,-1.4 -0.8,-1.9z"></path></g></g></svg>